<?xml version="1.0" standalone="no"?>
<!DOCTYPE svg PUBLIC "-//W3C//DTD SVG 20010904//EN"
 "http://www.w3.org/TR/2001/REC-SVG-20010904/DTD/svg10.dtd">
<svg version="1.0" xmlns="http://www.w3.org/2000/svg"
 width="512.000000pt" height="512.000000pt" viewBox="0 0 512.000000 512.000000"
 preserveAspectRatio="xMidYMid meet">
<metadata>
Created by potrace 1.16, written by Peter Selinger 2001-2019
</metadata>
<g transform="translate(0.000000,512.000000) scale(0.100000,-0.100000)"
fill="#000000" stroke="none">
<path d="M1905 5000 c4 -20 3 -30 -5 -30 -7 0 -10 7 -6 15 8 21 -11 19 -23 -2
-7 -14 -12 -15 -24 -5 -8 7 -19 12 -23 10 -5 -1 -52 1 -103 5 -77 7 -101 5
-128 -7 -18 -9 -50 -24 -70 -33 -21 -9 -48 -26 -60 -36 -23 -20 -43 -16 -43 9
0 8 -4 14 -10 14 -5 0 -10 -7 -10 -15 0 -8 5 -15 10 -15 6 0 10 -9 10 -21 0
-18 -4 -20 -26 -15 -22 6 -25 4 -19 -14 8 -25 -3 -26 -22 -2 -13 16 -14 15
-10 -5 3 -13 1 -26 -4 -29 -5 -3 -9 2 -9 10 0 9 -4 16 -10 16 -5 0 -10 -7 -10
-15 0 -24 -32 -50 -64 -52 -16 0 -31 -5 -35 -10 -7 -9 -86 -53 -97 -53 -4 0 5
9 19 20 14 11 30 20 36 20 6 0 11 5 11 10 0 6 7 10 15 10 8 0 15 4 15 9 0 14
-18 23 -24 12 -3 -5 -17 -12 -32 -15 -27 -7 -28 -8 -85 -55 -32 -27 -36 -28
-46 -13 -10 15 -15 13 -52 -23 -23 -21 -41 -43 -41 -48 0 -13 -24 -34 -49 -42
-27 -8 -82 -66 -74 -78 2 -4 20 6 39 23 50 43 64 37 18 -8 -22 -22 -44 -47
-51 -58 -31 -51 -113 -223 -113 -238 0 -26 -19 -56 -36 -56 -8 0 -19 -11 -24
-24 -5 -13 -14 -27 -19 -31 -13 -8 -14 7 -2 21 5 5 12 36 16 69 6 55 6 58 -8
40 -9 -13 -17 -52 -20 -98 -3 -43 -10 -83 -15 -90 -11 -13 -28 -86 -24 -101 2
-4 -1 -13 -7 -20 -5 -6 -12 -40 -16 -76 -4 -36 -11 -69 -15 -75 -4 -5 -11 -29
-15 -52 -4 -24 -10 -45 -15 -48 -4 -3 -11 -22 -15 -42 -4 -21 -12 -44 -18 -52
-18 -21 -17 -449 1 -460 22 -13 27 -84 8 -100 -17 -15 -22 -81 -6 -81 6 0 10
13 10 29 0 17 5 33 11 37 16 10 33 -12 24 -33 -4 -10 -7 -35 -6 -55 2 -29 -1
-38 -13 -38 -9 0 -16 -7 -16 -15 0 -8 9 -15 20 -15 11 0 20 -7 20 -15 0 -10
-6 -12 -17 -8 -30 11 -43 30 -45 65 -1 25 -3 21 -7 -16 -3 -27 -12 -51 -18
-54 -9 -2 -11 5 -7 27 6 27 4 31 -15 31 -11 0 -21 5 -21 12 0 6 -8 4 -19 -6
-20 -18 -41 -15 -41 6 0 7 6 6 15 -2 20 -17 20 7 0 34 -13 17 -15 18 -15 3 0
-9 -4 -17 -10 -17 -5 0 -10 -16 -10 -35 0 -23 5 -35 14 -35 17 0 30 -60 16
-74 -7 -7 -10 -1 -10 18 0 15 -4 24 -10 21 -10 -6 -7 -78 5 -108 10 -23 0 -96
-14 -110 -8 -8 -11 25 -11 115 0 129 -7 153 -35 124 -21 -20 -20 -50 1 -42 14
5 15 -2 9 -66 -4 -40 -11 -74 -16 -76 -12 -5 -12 -62 0 -62 5 0 12 10 14 23 2
12 2 -3 -1 -33 -2 -30 -8 -59 -13 -64 -12 -13 -11 -63 1 -71 6 -4 10 7 10 24
0 24 4 31 20 31 13 0 20 7 20 19 0 11 5 23 10 26 14 9 13 -58 -2 -73 -9 -9 -9
-15 0 -24 7 -7 12 -26 12 -44 0 -17 7 -37 15 -44 8 -7 15 -18 15 -25 0 -7 18
-22 40 -34 33 -17 59 -21 135 -21 71 0 95 -3 95 -13 0 -7 23 -35 50 -62 70
-69 62 -33 -10 43 l-59 62 -90 0 c-87 0 -92 1 -126 31 -19 17 -35 37 -35 45 0
8 -4 14 -9 14 -18 0 -7 50 15 71 13 12 24 17 24 11 0 -7 9 -12 20 -12 13 0 20
-7 20 -20 0 -24 8 -25 36 -6 27 19 76 24 81 9 3 -7 -1 -13 -7 -13 -18 0 -90
-60 -90 -75 0 -9 12 -6 43 11 64 36 68 37 79 26 14 -14 0 -35 -19 -28 -10 4
-13 0 -11 -12 2 -11 13 -17 33 -17 19 0 41 -11 65 -32 19 -18 39 -33 43 -33 5
0 23 -11 40 -24 39 -29 73 -40 81 -27 4 5 -14 20 -40 33 -51 26 -61 40 -26 43
13 1 22 -4 22 -12 0 -8 6 -13 13 -12 30 4 47 -2 47 -17 0 -10 6 -14 15 -11 8
4 17 2 21 -4 3 -6 16 -15 28 -20 16 -7 11 -8 -21 -4 -34 4 -44 2 -52 -13 -11
-21 3 -52 24 -52 8 0 15 -4 15 -9 0 -16 -79 -11 -88 6 -6 10 -12 12 -16 5 -3
-6 -2 -13 4 -17 5 -3 10 -15 10 -26 0 -11 7 -19 17 -19 9 0 34 -17 55 -37 44
-43 65 -37 23 7 -16 16 -25 33 -20 37 4 5 10 2 12 -4 7 -18 23 -16 23 3 0 10
7 14 23 13 28 -4 47 7 47 29 0 12 -3 13 -12 4 -20 -20 -55 -14 -61 9 -3 11
-15 23 -26 26 -11 3 -18 9 -15 15 4 5 10 5 18 -1 6 -6 32 -12 57 -14 25 -2 52
-8 60 -13 31 -20 55 -34 69 -39 8 -4 22 -10 31 -15 10 -5 21 -4 28 3 8 8 11 3
11 -21 0 -31 12 -42 24 -23 7 10 56 -9 56 -21 0 -13 -28 -9 -34 5 -5 10 -7 10
-12 0 -3 -7 -12 -13 -20 -13 -8 0 -14 -9 -14 -20 0 -23 3 -24 30 -8 15 10 24
9 44 -2 23 -12 28 -11 40 5 12 17 36 14 36 -5 0 -13 62 -76 82 -83 12 -4 21 1
28 14 6 11 15 17 21 14 5 -4 12 1 15 9 7 18 50 12 73 -9 19 -18 3 -38 -25 -32
-20 4 -24 0 -24 -21 0 -39 24 -59 65 -54 51 6 47 32 -5 32 -22 0 -40 5 -40 10
0 6 11 10 25 10 18 0 25 5 25 20 0 11 5 20 10 20 6 0 10 -7 10 -16 0 -13 7
-15 30 -10 27 5 30 3 31 -22 1 -20 2 -22 6 -7 2 11 7 27 10 35 8 23 22 -19 16
-48 -4 -17 -2 -21 11 -16 9 3 16 2 16 -4 0 -16 -20 -19 -65 -11 -46 8 -53 5
-35 -16 11 -14 7 -19 -12 -16 -5 0 -8 -6 -8 -14 0 -9 9 -15 24 -15 13 0 29 -7
36 -15 7 -8 18 -15 24 -15 14 0 38 38 31 50 -3 5 -1 11 4 14 5 4 12 -3 16 -14
8 -25 17 -25 40 0 21 24 67 26 85 5 7 -8 18 -15 24 -15 12 0 56 -43 56 -55 0
-4 14 -23 30 -42 17 -18 30 -39 30 -45 0 -9 3 -9 12 0 8 8 8 15 -2 27 -7 8
-10 19 -6 23 4 4 14 -1 21 -12 12 -15 59 -46 71 -46 21 0 -27 59 -49 60 -5 0
-24 12 -43 26 -32 25 -47 64 -24 64 6 0 10 -8 10 -18 0 -20 24 -37 68 -47 18
-3 32 -11 32 -16 0 -14 20 -11 37 6 12 13 13 18 2 31 -11 13 -9 14 17 8 16 -4
31 -10 34 -14 3 -4 20 -11 38 -15 17 -3 32 -11 32 -16 0 -14 -28 -11 -54 6
-25 17 -56 11 -56 -11 0 -8 10 -14 24 -14 14 0 28 -4 31 -10 3 -5 14 -10 24
-10 10 0 26 -9 36 -20 11 -13 25 -18 37 -14 13 4 18 0 18 -14 0 -11 8 -22 18
-26 21 -7 55 -28 63 -40 8 -10 29 1 29 15 0 5 -7 9 -15 9 -8 0 -40 25 -72 56
-31 31 -59 51 -61 45 -2 -6 -9 -11 -15 -11 -8 0 -7 4 1 12 17 17 15 73 -3 88
-12 10 -15 9 -15 -4 0 -13 -6 -15 -27 -10 -16 4 -31 11 -34 17 -4 5 -11 7 -16
4 -13 -8 -50 19 -41 29 4 4 14 2 21 -4 10 -9 17 -8 25 0 9 9 12 8 12 -5 0 -13
7 -16 35 -12 22 2 40 -1 49 -10 8 -8 20 -15 27 -15 9 0 9 -3 -1 -15 -14 -17
-6 -34 24 -44 24 -10 50 17 40 42 -4 12 0 14 15 10 12 -3 21 -1 21 5 0 14 -54
52 -73 52 -18 0 -39 24 -35 41 2 7 -13 17 -32 23 -19 6 -40 15 -47 19 -7 4
-42 10 -78 14 -36 3 -65 10 -65 14 0 13 187 11 195 -1 10 -17 75 -12 75 5 0
10 -10 15 -29 15 -17 0 -32 4 -35 9 -3 4 -33 6 -66 4 -40 -3 -60 -1 -60 6 0 6
8 11 19 11 10 0 24 7 31 15 7 9 21 13 31 10 15 -5 19 -1 19 17 1 21 2 22 14 5
15 -19 41 -23 51 -7 3 5 15 10 26 10 11 0 46 12 77 27 31 15 63 28 71 29 8 2
27 12 42 23 16 12 39 21 53 21 14 0 27 4 31 10 3 5 12 7 20 3 8 -3 15 -1 15 3
0 5 20 18 45 29 25 11 45 25 45 32 0 16 -2 16 -36 -1 -15 -8 -32 -13 -36 -10
-5 3 -18 -2 -29 -12 -10 -9 -22 -14 -26 -11 -8 9 26 47 42 47 7 0 18 6 24 14
6 7 28 16 49 20 83 13 162 70 162 118 0 18 5 28 15 28 8 0 15 7 15 15 0 8 5
15 10 15 6 0 10 -7 10 -15 0 -8 5 -15 11 -15 6 0 9 9 6 20 -3 10 1 24 9 31 11
9 14 6 14 -20 0 -28 3 -31 20 -26 28 9 15 -23 -14 -36 -32 -14 -60 -33 -69
-46 -4 -7 -14 -13 -21 -13 -8 0 -19 -6 -25 -14 -7 -8 -27 -22 -46 -31 -19 -9
-35 -22 -35 -30 0 -15 25 -4 118 52 20 12 44 25 52 29 8 4 25 18 37 31 12 13
26 23 31 23 5 0 17 9 27 20 10 11 24 20 31 20 7 0 14 5 16 10 2 6 21 13 42 17
27 4 37 3 32 -5 -3 -6 -2 -13 4 -17 5 -3 10 -28 10 -56 0 -37 4 -49 15 -49 9
0 18 -7 21 -15 8 -19 24 -19 24 0 0 23 31 18 60 -10 l26 -25 50 26 c27 14 58
34 70 45 11 10 24 19 29 19 4 0 23 12 42 26 26 20 37 23 48 14 9 -7 15 -8 20
0 3 5 14 10 24 10 10 0 24 7 31 15 7 8 29 15 49 15 29 0 38 -5 49 -28 8 -17 9
-28 2 -30 -5 -2 -10 -17 -10 -33 0 -20 -8 -34 -27 -46 -16 -10 -32 -23 -36
-30 -4 -7 -15 -13 -22 -13 -8 0 -15 -7 -15 -15 0 -19 -19 -19 -26 0 -10 25
-20 17 -47 -37 -15 -29 -40 -68 -56 -86 -27 -32 -34 -34 -110 -39 -64 -5 -85
-3 -105 11 -35 22 -49 20 -43 -6 6 -22 3 -23 -49 -25 -30 -2 -67 -9 -83 -17
-16 -9 -31 -13 -34 -10 -3 3 -11 -5 -18 -17 -18 -35 -37 -51 -44 -39 -3 5 -1
10 4 10 6 0 11 7 11 17 0 14 -2 14 -20 -2 -11 -10 -20 -25 -20 -34 0 -20 -103
-124 -113 -115 -4 4 -7 -2 -7 -14 0 -20 -47 -62 -69 -62 -6 0 -11 -9 -11 -21
0 -18 4 -20 33 -14 17 4 36 11 41 15 11 11 37 -15 61 -63 11 -20 23 -37 27
-37 5 0 8 -6 8 -13 0 -7 21 -33 46 -57 25 -25 50 -55 55 -68 7 -18 14 -22 32
-18 12 3 16 3 10 0 -17 -7 -17 -51 -1 -56 8 -3 13 -27 13 -68 l0 -63 -44 -24
c-64 -33 -114 -31 -141 7 -18 25 -50 41 -50 26 0 -14 52 -101 67 -112 16 -12
16 -13 -8 -14 -24 0 -39 -16 -39 -41 0 -5 9 -9 20 -9 11 0 20 5 20 10 0 6 5
10 11 10 8 0 8 -4 -1 -15 -24 -29 1 -35 42 -9 38 24 43 25 53 10 7 -9 17 -16
23 -16 15 0 91 40 98 52 3 5 11 5 19 -2 9 -8 15 -8 20 0 11 18 25 10 21 -13
-4 -22 16 -62 26 -52 3 3 2 24 -2 45 -4 23 -3 43 2 46 5 3 7 12 4 19 -3 8 2
19 10 25 8 7 14 18 14 25 0 7 9 15 21 18 18 5 19 8 7 26 -13 22 -38 29 -38 10
0 -5 -5 -7 -11 -4 -6 4 -8 13 -5 21 3 7 1 16 -4 19 -6 4 -10 26 -10 50 0 24
-5 47 -10 50 -6 4 -8 10 -5 15 3 5 1 11 -5 15 -5 3 -10 16 -10 29 0 12 -6 28
-12 35 -11 10 -9 15 7 27 14 10 19 27 20 62 0 47 0 47 38 50 28 2 37 0 37 -12
0 -9 7 -16 15 -16 8 0 15 6 15 14 0 18 73 31 135 23 31 -3 48 0 56 9 16 20 29
17 29 -5 0 -11 4 -22 9 -25 4 -3 11 -41 14 -83 4 -72 14 -102 56 -173 5 -8 23
-46 41 -83 29 -62 31 -73 25 -133 -5 -41 -13 -68 -21 -71 -19 -7 -18 -43 1
-43 9 0 18 7 21 15 7 17 54 21 54 5 0 -6 6 -10 13 -9 21 4 51 -13 91 -53 21
-21 56 -43 80 -50 22 -6 46 -15 51 -19 6 -4 28 -10 50 -14 22 -4 47 -13 55
-20 8 -6 23 -15 33 -18 9 -4 16 -10 15 -15 -5 -13 67 -92 84 -92 8 0 23 -6 34
-14 25 -19 8 -37 -49 -51 -28 -7 -46 -19 -54 -35 -12 -24 -15 -22 -17 10 -1
18 -42 26 -60 11 -9 -7 -16 -7 -24 1 -8 8 -13 7 -18 -6 -4 -11 -13 -15 -25
-11 -13 4 -19 1 -19 -9 0 -15 15 -20 49 -18 8 0 26 -8 39 -19 14 -10 30 -19
37 -19 21 0 45 -35 38 -58 -6 -26 21 -32 31 -7 4 10 13 14 28 10 18 -5 34 5
72 44 27 28 53 48 57 45 10 -6 62 30 95 63 12 13 33 23 48 23 19 0 26 5 26 19
0 11 -4 23 -10 26 -5 3 -10 17 -10 31 0 21 -5 24 -34 24 -19 0 -37 4 -40 9 -3
4 -21 11 -41 14 -19 3 -50 17 -68 31 -19 14 -39 26 -45 26 -7 0 -12 5 -12 12
0 7 -19 31 -42 55 -23 23 -42 50 -43 60 -5 54 -18 103 -31 114 -8 6 -14 17
-14 23 0 7 -15 27 -34 45 -33 32 -44 35 -139 40 -14 1 -16 7 -11 27 5 18 0 31
-16 49 -22 23 -22 28 -16 149 5 81 3 126 -3 130 -12 8 -12 75 1 82 4 3 8 -13
8 -35 0 -23 5 -41 10 -41 14 0 13 93 -1 107 -8 8 -8 13 0 17 14 9 15 56 1 56
-5 0 -10 -9 -10 -20 0 -11 -4 -20 -10 -20 -15 0 -12 26 4 40 26 21 55 93 62
153 6 47 9 55 20 46 11 -9 14 -7 14 12 0 13 14 38 32 56 25 26 29 36 20 45
-20 20 -14 29 14 22 25 -6 26 -5 21 18 -5 18 -1 33 13 51 11 14 20 30 20 36 0
5 6 14 13 18 7 4 20 20 30 36 10 15 24 27 31 27 13 0 29 34 27 57 -1 6 3 14 9
18 5 3 10 14 10 24 0 10 9 26 20 36 11 10 20 24 20 32 0 7 4 13 9 13 5 0 12
14 16 30 4 17 11 30 16 30 5 0 9 11 9 24 0 14 5 28 10 31 8 5 8 11 1 19 -6 7
-8 16 -4 19 8 8 8 96 -1 104 -3 3 -6 27 -6 52 0 54 -35 109 -63 98 -20 -7 -23
-43 -4 -50 9 -4 9 -6 0 -6 -7 -1 -27 12 -45 28 -26 22 -47 29 -95 34 -56 6
-63 5 -63 -11 0 -10 5 -23 12 -30 7 -7 8 -12 2 -12 -6 0 -24 15 -42 33 -23 24
-29 36 -22 47 13 20 13 40 0 40 -5 0 -10 -7 -10 -15 0 -8 -5 -15 -10 -15 -7 0
-8 13 -5 34 6 28 4 35 -13 40 -14 5 -18 13 -15 27 5 18 3 20 -17 14 -15 -5
-20 -4 -16 4 4 6 1 11 -7 11 -8 0 -20 6 -26 14 -8 9 -37 13 -101 13 -80 -1
-90 -3 -90 -19 0 -10 -5 -18 -11 -18 -6 0 -8 8 -4 19 3 10 -1 24 -10 31 -8 7
-15 25 -15 41 0 16 -4 29 -10 29 -5 0 -10 -7 -10 -15 0 -9 -6 -12 -15 -9 -10
4 -15 0 -15 -15 0 -12 5 -21 10 -21 6 0 10 -7 10 -15 0 -8 -4 -15 -9 -15 -5 0
-11 -9 -14 -20 -7 -29 -18 -25 -62 20 l-38 39 19 40 c10 22 27 42 37 45 9 2
17 11 17 20 0 10 -6 13 -17 9 -15 -6 -16 -4 -6 8 7 8 15 35 18 59 6 42 15 71
36 111 4 9 5 20 1 23 -3 4 -5 22 -4 41 3 29 1 33 -16 29 -15 -4 -19 -15 -19
-49 0 -24 -6 -51 -13 -60 -10 -12 -10 -21 -1 -41 15 -34 14 -47 -4 -40 -12 4
-15 -4 -15 -38 0 -48 -14 -66 -55 -69 -38 -3 -55 25 -32 51 22 24 9 37 -15 15
-15 -14 -18 -14 -18 -1 0 8 3 18 6 21 20 20 4 157 -19 157 -5 0 -6 -11 -1 -27
11 -38 11 -107 0 -111 -14 -3 -26 171 -13 184 3 4 13 1 21 -5 9 -8 16 -8 20
-2 4 5 2 12 -4 16 -5 3 -9 21 -9 38 1 24 3 26 6 10 2 -13 8 -23 12 -23 12 0
25 59 22 98 -2 18 2 32 8 32 6 0 11 7 11 15 0 8 -5 15 -11 15 -8 0 -8 4 -1 13
5 6 13 27 17 45 3 17 11 32 16 32 5 0 9 7 9 15 0 8 -7 15 -15 15 -8 0 -15 -7
-15 -15 0 -8 -4 -15 -10 -15 -5 0 -10 -13 -10 -30 0 -20 -5 -30 -15 -30 -9 0
-15 -9 -15 -21 0 -18 -2 -19 -15 -9 -10 8 -12 17 -6 24 5 6 12 44 16 84 4 39
11 72 16 72 5 0 9 -9 9 -20 0 -11 5 -20 11 -20 7 0 8 7 4 18 -12 28 -11 45 3
49 7 3 12 -4 12 -16 0 -14 6 -21 19 -21 11 0 23 -4 26 -10 10 -16 25 -12 25 6
0 11 5 14 16 10 14 -5 16 -1 10 26 -9 43 -35 70 -62 64 -20 -5 -22 -1 -27 60
-4 37 -12 73 -18 80 -7 9 -8 14 -1 14 6 0 27 -34 47 -75 31 -65 55 -94 55 -66
0 23 -84 160 -107 174 -16 10 -17 49 -2 64 8 8 8 13 0 17 -6 4 -11 0 -11 -8 0
-31 -27 -11 -58 42 -10 19 -10 26 4 47 9 13 12 30 8 36 -5 9 -10 6 -15 -10 -5
-12 -19 -25 -31 -30 -19 -7 -31 -1 -75 40 -28 27 -57 49 -62 49 -6 0 -11 7
-11 15 0 20 -28 19 -32 -2 -3 -15 -4 -15 -17 0 -12 15 -11 17 3 17 9 0 16 7
16 15 0 8 -8 15 -18 15 -10 0 -29 11 -42 25 -13 14 -19 25 -14 25 5 0 -9 10
-31 21 -22 12 -42 25 -45 29 -3 5 -18 12 -33 15 -15 4 -27 11 -27 16 0 5 -5 9
-10 9 -9 0 -65 35 -80 50 -15 15 -71 50 -80 50 -5 0 -10 5 -10 10 0 6 6 10 13
10 24 0 77 -31 77 -44 0 -8 13 -13 30 -14 19 0 30 4 30 13 0 21 -117 75 -179
82 -39 4 -61 13 -77 30 -23 25 -53 30 -72 11 -8 -8 -15 -8 -27 2 -8 7 -18 10
-22 6 -9 -8 -43 24 -43 41 0 7 6 22 12 33 10 16 10 23 -5 37 -16 16 -17 14
-17 -40 0 -44 -3 -57 -15 -57 -8 0 -15 8 -15 18 0 10 -5 23 -12 30 -9 9 -9 12
0 12 7 0 12 7 12 15 0 10 -10 15 -33 15 -19 0 -37 3 -40 7 -8 8 -297 7 -305
-1 -12 -13 -83 -6 -88 9 -11 28 -26 16 -19 -15z m842 -310 c11 0 26 -7 33 -15
7 -8 17 -15 23 -15 13 0 47 -30 47 -42 0 -5 -10 -2 -22 6 -12 9 -28 16 -35 16
-20 0 -16 -28 5 -33 13 -4 12 -5 -5 -6 -12 0 -24 -5 -28 -11 -8 -14 17 -50 36
-50 9 0 27 -11 40 -24 13 -13 33 -25 43 -27 11 -2 22 -11 24 -19 4 -13 3 -13
-10 -2 -9 7 -35 14 -58 15 -24 1 -44 7 -47 14 -3 7 -12 13 -19 13 -8 0 -17 7
-20 15 -10 25 -24 17 -24 -13 0 -36 28 -63 58 -55 18 4 22 1 22 -16 0 -35 -41
-26 -85 19 -38 39 -38 40 -20 60 17 19 17 21 1 39 -17 19 -17 20 10 23 39 4
44 28 5 28 -33 0 -44 23 -16 34 22 8 18 24 -7 28 -12 2 -24 9 -26 17 -3 10 0
12 12 8 11 -4 16 -1 16 11 1 16 1 16 14 0 7 -10 22 -18 33 -18z m-658 -49 l31
-29 -24 -45 c-14 -25 -22 -47 -20 -50 3 -3 1 -13 -5 -24 -21 -40 -51 -110 -51
-121 0 -7 -4 -12 -10 -12 -5 0 -10 -9 -10 -19 0 -24 -44 -56 -87 -64 -25 -5
-33 -3 -33 8 0 8 6 18 13 22 8 4 22 23 33 42 10 19 29 46 42 59 15 18 19 29
12 36 -14 14 -13 62 2 85 12 19 5 51 -11 51 -6 0 -24 -15 -40 -32 -17 -18 -31
-28 -31 -22 0 6 9 19 20 29 11 10 20 23 20 28 0 17 80 87 100 87 10 0 32 -13
49 -29z m151 -20 c0 -5 -12 -24 -26 -41 -15 -17 -25 -32 -23 -33 2 -1 14 -7
26 -14 17 -10 23 -10 27 0 3 7 3 -1 -1 -18 -3 -16 -10 -36 -16 -43 -5 -7 -7
-16 -3 -20 13 -12 44 41 51 84 3 23 12 48 20 54 12 10 13 4 10 -34 -4 -43 -38
-106 -57 -106 -4 0 -8 -7 -8 -16 0 -10 -6 -14 -15 -10 -10 3 -15 -1 -15 -12 0
-9 -7 -26 -15 -36 -17 -23 -20 -46 -5 -46 6 0 10 6 10 13 0 8 9 22 20 32 11
10 20 24 20 32 0 7 2 13 4 13 2 0 12 3 20 6 17 7 15 -7 -6 -52 -12 -27 -7 -56
11 -62 10 -3 12 2 7 21 -3 14 -1 29 4 32 6 4 10 14 9 23 -3 21 16 68 30 77 6
3 11 16 11 28 0 11 14 36 31 53 17 18 37 43 43 56 15 31 28 29 59 -8 20 -23
26 -43 28 -85 1 -30 5 -59 10 -64 4 -6 10 -26 12 -45 3 -19 4 0 3 43 -3 75 -2
77 15 61 11 -10 19 -25 19 -34 0 -24 26 -46 33 -28 4 10 8 10 16 -2 9 -12 11
-10 11 13 0 16 -5 27 -14 27 -7 0 -16 9 -19 20 -3 13 0 20 9 20 8 0 14 -6 14
-13 0 -8 9 -22 20 -32 11 -10 20 -13 20 -7 0 22 -20 61 -41 81 -12 11 -20 24
-16 27 4 4 23 -9 42 -28 28 -26 38 -46 42 -79 3 -24 9 -46 13 -49 4 -3 10 -15
14 -27 6 -19 4 -23 -13 -23 -35 0 -24 -27 14 -34 28 -6 34 -11 32 -29 -1 -14
3 -22 13 -22 19 0 15 55 -5 71 -8 6 -16 20 -18 30 -1 10 -5 24 -8 29 -23 41
-15 44 23 9 67 -60 93 -94 74 -94 -9 0 -16 6 -16 13 0 16 -49 62 -57 53 -3 -3
1 -14 10 -24 10 -10 17 -26 17 -34 0 -9 7 -21 15 -28 20 -17 19 -36 -5 -60
-11 -11 -20 -26 -20 -34 0 -8 -4 -18 -10 -21 -13 -8 -13 -25 0 -25 6 0 15 11
20 25 5 14 14 25 20 25 5 0 10 6 10 14 0 24 26 38 40 22 6 -9 9 -20 6 -25 -4
-5 -2 -12 4 -16 6 -4 10 6 10 25 0 30 0 30 28 16 56 -29 78 -78 74 -163 -2
-25 2 -43 8 -43 5 0 10 11 10 25 0 27 18 34 25 10 3 -8 8 -23 12 -32 4 -10 8
-22 8 -28 2 -10 10 -34 26 -73 5 -14 5 -40 -1 -68 -6 -25 -13 -91 -16 -147 -3
-56 -8 -104 -10 -106 -10 -11 -14 12 -15 85 0 43 -3 91 -5 107 -7 32 -26 37
-23 5 1 -13 1 -34 1 -47 -2 -19 -5 -21 -16 -12 -11 9 -13 4 -13 -29 0 -33 2
-38 13 -29 16 14 19 -2 3 -18 -8 -8 -8 -13 0 -17 6 -4 11 -2 11 4 0 6 4 9 9 6
4 -3 6 -17 3 -31 -2 -15 0 -25 7 -25 16 0 2 -60 -30 -122 -12 -24 -11 -62 2
-75 13 -13 3 -73 -12 -73 -12 0 -12 27 1 35 6 4 7 11 4 17 -11 17 -27 -31 -28
-84 -1 -26 -5 -50 -9 -54 -4 -4 -7 -20 -7 -35 0 -22 -4 -26 -20 -22 -25 7 -26
-5 -2 -24 16 -13 16 -14 -3 -11 -19 3 -28 17 -59 88 -17 40 -125 162 -126 142
0 -7 12 -24 27 -38 14 -13 24 -27 20 -30 -3 -3 -36 27 -74 66 -46 49 -67 79
-66 94 2 13 0 16 -4 6 -3 -8 -11 -18 -17 -22 -8 -5 -7 -11 2 -20 19 -19 17
-305 -3 -324 -20 -21 -19 -30 5 -30 13 0 20 7 20 18 0 10 6 18 13 18 8 0 22 9
32 20 21 23 40 26 32 5 -4 -8 -2 -17 3 -20 6 -4 10 6 10 20 0 17 14 39 40 65
39 39 50 60 30 60 -6 0 -13 -7 -16 -15 -4 -10 -13 -13 -26 -9 -16 5 -19 2 -14
-14 4 -12 0 -24 -9 -32 -14 -12 -16 -7 -13 45 2 36 8 60 16 63 6 2 12 -4 12
-13 0 -11 7 -16 24 -13 33 4 57 -19 50 -48 -5 -18 -3 -23 7 -19 22 7 55 -73
41 -96 -7 -12 -8 -20 -2 -24 6 -3 10 1 10 9 0 9 5 16 10 16 13 0 13 -47 1 -55
-5 -3 -12 -19 -16 -35 -8 -35 -22 -39 -28 -7 -4 19 -4 18 -6 -5 -2 -46 -19
-32 -26 22 -6 43 -10 50 -29 50 -21 0 -56 -31 -56 -50 0 -15 17 -12 24 5 7 20
32 19 40 -2 3 -10 9 -24 12 -32 5 -10 1 -11 -17 -6 l-24 7 23 -25 c15 -16 20
-27 13 -32 -6 -3 -11 -24 -11 -46 0 -48 -24 -54 -34 -8 -3 16 -13 37 -21 45
-13 14 -15 13 -15 -8 0 -13 5 -29 12 -36 16 -16 2 -28 -15 -14 -8 7 -16 10
-19 7 -3 -3 -4 18 -2 47 1 29 0 40 -3 23 -2 -16 -11 -37 -19 -46 -8 -9 -14
-24 -13 -35 4 -37 -1 -64 -11 -64 -14 0 -12 84 3 99 10 11 10 14 0 18 -7 3
-13 11 -13 19 0 9 -4 13 -10 9 -5 -3 -7 -12 -4 -19 6 -17 -12 -31 -21 -16 -9
14 -25 12 -25 -3 0 -8 11 -19 25 -25 21 -10 25 -19 25 -52 0 -22 -4 -40 -10
-40 -5 0 -10 6 -10 13 0 8 -9 22 -20 32 -20 18 -20 17 -20 -13 0 -26 3 -30 18
-25 15 6 15 5 3 -10 -21 -26 -45 -20 -60 14 -10 23 -10 34 -2 42 41 41 -60
185 -141 201 -56 11 -69 6 -126 -44 -31 -27 -59 -50 -63 -50 -12 0 25 65 64
112 20 25 37 50 37 56 0 6 12 24 26 42 19 21 32 29 45 25 14 -5 19 -1 19 13 0
11 -5 22 -11 24 -13 4 -1 29 41 88 14 19 32 49 39 65 8 17 16 24 18 17 3 -6 9
-9 14 -6 6 4 6 11 -1 19 -8 10 -8 20 1 37 l12 23 10 -23 c6 -12 14 -22 19 -22
12 0 10 8 -8 36 -24 36 -8 42 26 9 21 -20 30 -24 30 -13 0 8 -9 23 -20 33 -30
27 -26 69 10 95 31 22 41 46 15 36 -13 -5 -15 2 -9 47 4 28 10 56 15 62 14 14
11 229 -3 243 -10 9 -8 16 6 30 17 16 18 16 11 -5 -7 -26 9 -32 19 -7 18 48
-1 68 -36 37 -16 -14 -18 -14 -18 -1 0 39 -79 169 -147 242 -25 26 -25 30 -10
41 18 13 23 35 8 35 -6 0 -12 -4 -15 -9 -3 -5 -22 -12 -41 -15 -22 -5 -35 -13
-35 -23 0 -11 6 -14 24 -9 20 5 23 3 19 -18 -3 -13 0 -27 6 -30 6 -4 11 0 11
8 0 9 4 16 8 16 15 0 92 -101 92 -120 0 -5 5 -10 10 -10 6 0 10 -6 10 -14 0
-7 6 -19 14 -25 8 -7 17 -30 21 -52 4 -21 11 -41 16 -45 25 -15 3 -61 -66
-135 -8 -9 -14 -29 -14 -45 1 -23 3 -25 6 -6 5 25 23 30 23 6 0 -8 5 -12 10
-9 8 5 7 11 -1 21 -9 11 -4 23 22 56 l34 42 3 -29 c3 -21 -2 -34 -17 -44 -27
-18 -27 -35 0 -28 21 6 22 4 15 -71 -3 -42 -11 -81 -16 -86 -6 -6 -10 -21 -10
-36 0 -14 -3 -35 -6 -48 -5 -19 -9 -20 -22 -10 -13 11 -14 9 -8 -14 5 -21 3
-28 -9 -28 -10 0 -15 -10 -15 -27 0 -42 -15 -60 -34 -43 -23 18 -33 4 -12 -18
19 -21 11 -56 -10 -48 -10 4 -14 -2 -14 -19 0 -21 -27 -83 -41 -95 -4 -3 -16
-23 -27 -46 -25 -49 -52 -75 -52 -50 0 9 -4 16 -10 16 -13 0 -13 -13 0 -26 19
-19 -46 -119 -83 -129 -46 -14 -83 -35 -111 -64 -28 -29 -31 -30 -48 -14 -10
9 -18 22 -18 30 0 7 -4 13 -9 13 -5 0 -13 9 -16 20 -3 11 -12 20 -20 20 -7 0
-17 15 -20 33 -4 17 -12 38 -17 45 -6 7 -8 30 -4 55 4 23 8 52 10 65 4 27 22
49 32 39 4 -4 1 -13 -5 -21 -9 -10 -10 -39 -5 -101 10 -124 28 -123 22 1 -3
54 -3 83 -1 64 3 -19 9 -40 13 -46 5 -5 12 -47 16 -92 4 -45 13 -90 20 -100
10 -14 12 -6 7 48 -2 36 -8 79 -13 95 -5 17 -11 57 -15 90 -4 33 -10 62 -15
65 -4 3 -10 30 -13 62 -7 53 -6 56 13 51 11 -3 20 -10 20 -16 0 -8 4 -7 11 0
9 9 8 16 -4 27 -9 9 -19 16 -23 16 -33 0 -61 82 -31 93 10 4 10 7 0 18 -10 9
-13 10 -13 1 0 -7 -8 -12 -18 -12 -26 0 -42 20 -42 53 0 17 -4 26 -11 22 -6
-4 -8 -13 -5 -21 8 -20 -10 -26 -34 -12 -19 11 -21 19 -15 63 3 28 10 54 16
60 5 5 9 21 9 35 0 14 6 34 14 45 7 11 16 40 19 64 4 35 15 54 53 92 27 27 53
49 58 49 15 0 76 62 76 77 0 20 -10 16 -32 -12 -11 -14 -23 -23 -28 -20 -4 3
-29 -18 -54 -46 -43 -47 -46 -49 -40 -23 4 16 10 34 14 39 5 6 11 27 15 48 4
20 11 40 16 43 5 3 9 11 9 19 0 8 5 26 12 42 6 15 12 35 14 43 2 8 10 20 20
27 12 9 15 20 11 43 -4 17 -2 30 3 30 6 0 10 -5 10 -11 0 -11 12 -40 51 -128
19 -41 19 -44 3 -62 -21 -23 -11 -37 12 -18 14 11 18 11 22 1 2 -7 10 -19 18
-26 8 -8 14 -19 14 -25 0 -6 14 -26 30 -44 17 -19 30 -38 30 -42 0 -4 16 -27
35 -51 24 -29 34 -51 32 -66 -2 -13 -2 -17 0 -10 6 16 23 15 23 -2 0 -7 7 -19
15 -26 39 -33 3 36 -70 132 -19 25 -35 49 -35 53 0 4 -12 24 -27 44 -52 68
-56 79 -30 93 12 7 31 18 42 25 11 7 35 19 53 28 25 12 32 21 32 43 0 31 -33
57 -65 50 -32 -6 -29 -28 4 -28 16 0 32 -4 36 -9 6 -11 -47 -54 -98 -80 -41
-21 -41 -21 -80 80 -39 98 -41 111 -18 153 12 20 21 41 21 46 0 21 42 120 51
120 6 0 8 -4 4 -9 -3 -5 -1 -12 4 -15 5 -3 11 1 15 9 3 8 11 15 19 15 7 0 24
11 37 25 26 27 30 30 30 16z m-280 -90 c0 -6 -4 -12 -9 -15 -4 -3 -11 -28 -15
-55 -4 -28 -10 -53 -15 -55 -5 -3 -12 -21 -15 -40 -4 -19 -10 -36 -14 -38 -5
-2 -23 -24 -41 -50 -17 -27 -36 -48 -41 -48 -8 0 63 146 81 165 11 11 12 25 2
25 -9 0 -60 -79 -88 -136 -11 -23 -25 -39 -32 -37 -9 3 -13 -7 -13 -31 0 -22
-5 -36 -13 -36 -7 0 -23 -13 -37 -30 -14 -16 -29 -30 -34 -30 -4 0 -4 6 2 13
5 6 13 27 17 45 3 17 11 32 16 32 5 0 9 7 9 15 0 9 6 12 15 9 18 -7 20 7 3 24
-8 8 -8 15 2 27 7 8 10 19 6 23 -7 7 -30 -25 -31 -42 0 -5 -9 -14 -20 -20 -11
-6 -23 -15 -27 -21 -19 -25 -5 8 16 39 32 48 48 62 76 70 14 3 19 3 13 0 -7
-3 -13 -12 -13 -21 0 -8 6 -13 13 -10 6 2 12 19 12 38 1 42 64 116 83 97 9 -9
12 -6 12 14 0 15 5 30 11 33 17 11 24 -4 12 -24 -7 -11 -9 -22 -6 -25 3 -3 12
6 20 21 10 19 11 28 2 33 -8 5 -5 14 7 29 19 22 34 27 34 12z m1174 -218 c-3
-32 -7 -71 -9 -86 -3 -20 -1 -27 8 -25 6 3 13 22 15 44 3 52 11 84 20 84 11
-1 39 -70 47 -115 4 -22 12 -46 17 -53 8 -9 8 -16 0 -24 -15 -15 -43 -2 -49
22 -6 24 -23 27 -23 4 0 -15 -2 -15 -24 -1 -35 23 -41 8 -9 -25 15 -15 22 -28
15 -28 -6 0 -14 5 -17 10 -3 6 -15 10 -25 10 -25 0 -35 17 -20 35 9 11 9 19 2
28 -13 16 -13 107 -1 107 5 0 9 -7 9 -15 0 -8 5 -15 10 -15 6 0 10 9 10 19 0
11 -4 23 -10 26 -5 3 -10 15 -10 25 0 16 11 23 41 29 4 0 5 -25 3 -56z m-1169
-75 c-4 -18 -11 -39 -15 -48 -11 -22 -26 -60 -40 -100 -7 -19 -16 -44 -20 -55
-5 -11 -11 -37 -15 -57 -3 -21 -10 -38 -16 -38 -5 0 -13 -8 -16 -17 -4 -10
-23 -38 -42 -63 -40 -50 -55 -73 -73 -110 -7 -14 -23 -39 -35 -56 -13 -17 -23
-36 -23 -43 0 -7 -4 -10 -9 -7 -13 9 0 49 21 64 10 7 18 20 18 28 0 8 5 14 10
14 6 0 10 5 10 11 0 6 -7 9 -15 6 -17 -7 -30 9 -16 18 6 3 9 32 8 65 -1 36 4
65 11 72 7 7 12 20 12 29 0 9 6 22 14 28 8 6 17 36 21 66 3 30 11 57 16 61 6
3 9 20 7 37 -2 26 0 31 15 29 12 -2 21 4 24 17 3 12 10 21 15 21 5 0 21 9 35
20 14 11 38 20 54 20 15 0 31 5 34 10 12 20 16 9 10 -22z m1043 -69 c25 -22
36 -41 38 -63 2 -40 14 -76 25 -76 11 0 6 63 -6 72 -14 10 0 19 19 12 9 -3 16
-12 16 -19 0 -7 6 -15 13 -18 9 -3 9 -7 0 -18 -6 -8 -10 -34 -9 -59 2 -25 -1
-51 -7 -58 -5 -6 -10 -31 -11 -55 -1 -23 -6 -48 -10 -55 -4 -7 -5 -16 -1 -21
3 -5 1 -12 -5 -16 -5 -3 -10 -13 -10 -22 0 -13 3 -13 15 -3 13 11 15 1 15 -78
0 -55 -4 -93 -11 -98 -6 -3 -9 -14 -6 -25 7 -26 -45 -83 -61 -67 -9 9 -12 5
-12 -19 0 -17 -7 -36 -15 -43 -13 -11 -15 -8 -15 18 0 16 7 35 15 42 8 7 15
20 15 30 0 9 3 20 7 23 3 4 7 19 9 34 1 16 8 53 14 83 7 30 13 71 15 90 2 19
6 74 10 121 6 61 4 88 -4 93 -6 4 -11 23 -11 42 0 19 -4 34 -10 34 -5 0 -10
10 -10 22 0 12 -11 33 -24 47 -22 25 -43 81 -30 81 3 0 22 -14 42 -31z m-1283
-79 c7 -30 0 -80 -15 -110 -30 -61 -50 -109 -50 -122 0 -24 -24 -68 -37 -68
-15 0 -17 -16 -3 -25 5 -3 6 -13 1 -23 -27 -56 -41 -90 -47 -116 -4 -16 -13
-41 -21 -55 -13 -24 -13 -21 -7 34 4 33 10 62 14 65 4 3 11 38 15 78 6 57 10
72 21 68 9 -3 14 1 14 13 0 11 5 21 10 23 6 2 14 23 18 48 5 33 13 48 30 55
24 11 28 20 12 30 -6 4 0 18 15 37 24 29 34 68 16 68 -5 0 -12 -11 -15 -25 -4
-14 -15 -34 -26 -45 -11 -11 -17 -26 -14 -35 6 -14 -5 -19 -32 -16 -7 1 -14
-24 -18 -59 -4 -33 -11 -60 -16 -60 -5 0 -17 -16 -26 -35 -9 -20 -19 -34 -21
-31 -8 8 8 66 18 66 5 0 9 10 9 23 0 13 7 32 15 43 8 10 15 26 15 35 0 9 7 22
15 29 8 7 15 21 15 31 0 11 7 19 15 19 8 0 15 6 15 13 0 8 9 22 20 32 11 10
20 24 20 32 0 25 18 13 25 -17z m-429 -94 c9 -9 14 -36 14 -75 0 -33 4 -63 10
-66 6 -4 6 -12 0 -23 -5 -9 -12 -39 -15 -66 -4 -32 -14 -56 -29 -70 -19 -17
-21 -25 -13 -38 12 -18 3 -37 -10 -24 -9 9 -18 163 -9 155 4 -3 7 -23 8 -43 2
-56 18 -54 18 3 0 27 -4 53 -10 56 -5 3 -10 22 -10 41 0 19 5 43 10 54 6 11
15 29 20 40 6 11 10 27 10 35 0 8 -4 15 -10 15 -5 0 -10 -6 -10 -14 0 -7 -7
-19 -15 -26 -21 -18 -20 5 3 35 20 29 20 29 38 11z m-86 -134 c0 -43 -4 -82
-9 -87 -14 -15 -26 -113 -12 -100 5 6 15 28 20 50 l9 40 1 -57 c1 -31 6 -60
11 -63 13 -8 13 -66 0 -101 l-11 -27 -19 39 c-11 21 -20 53 -20 71 0 18 -5 33
-11 33 -7 0 -9 -10 -7 -25 3 -14 2 -27 -2 -30 -3 -2 -7 56 -8 130 -2 113 0
135 12 135 9 0 18 14 22 35 11 61 24 38 24 -43z m622 -32 c-6 -11 -12 -30 -12
-43 0 -13 -3 -27 -7 -31 -7 -7 -10 -17 -20 -68 -3 -17 -12 -28 -21 -28 -20 0
-82 -59 -82 -77 0 -7 -4 -21 -9 -31 -13 -26 -32 -101 -38 -149 -4 -31 -10 -43
-21 -43 -12 0 -13 3 -4 12 14 14 16 88 2 88 -5 0 -10 -17 -10 -37 0 -34 -2
-36 -15 -22 -14 14 -14 19 -1 45 8 16 35 73 61 127 25 53 51 97 56 97 6 0 8
-4 4 -9 -3 -5 -1 -12 4 -15 4 -3 8 12 7 33 0 28 7 48 29 77 36 46 52 73 61 97
5 13 10 15 18 7 7 -7 7 -16 -2 -30z m95 -297 c1 -10 5 -51 9 -90 6 -64 5 -73
-10 -73 -9 0 -16 5 -16 10 0 6 -7 10 -15 10 -8 0 -15 -6 -15 -14 0 -16 24 -38
33 -30 10 10 -5 -70 -15 -83 -5 -7 -7 -17 -3 -23 3 -5 3 -15 0 -21 -4 -6 -18
12 -31 40 -14 28 -29 51 -34 51 -12 0 -13 -43 -1 -55 10 -12 23 -175 14 -175
-11 0 -53 43 -53 54 0 6 -21 32 -47 58 -37 38 -44 50 -35 61 7 8 15 35 18 61
4 25 11 46 16 46 5 0 6 9 3 20 -8 26 2 25 26 -2 14 -17 18 -19 19 -7 0 8 -7
24 -15 35 -19 25 -19 54 0 54 8 0 15 3 15 8 0 4 14 15 30 24 l30 17 -1 -37 c0
-20 -4 -59 -8 -85 -8 -47 0 -70 15 -45 9 15 10 20 12 112 l2 69 21 -19 c22
-19 22 -19 16 7 -6 25 -2 39 13 39 3 0 6 -8 7 -17z m1498 -369 c65 -64 72 -83
45 -117 -11 -14 -20 -33 -20 -42 0 -12 -5 -15 -22 -9 -13 3 -23 7 -24 8 0 0
-8 14 -17 29 l-18 28 26 -7 c35 -9 32 11 -5 28 -25 10 -30 17 -25 36 3 12 -2
38 -11 57 -14 30 -14 38 -3 51 10 12 14 13 17 4 3 -7 28 -37 57 -66z m-1074
-100 c11 -13 25 -134 15 -134 -3 0 -12 21 -21 48 l-15 47 4 -58 c4 -44 2 -56
-7 -50 -20 15 -42 9 -42 -12 0 -14 8 -21 25 -23 40 -6 71 -42 36 -42 -8 0 -16
-7 -20 -15 -7 -20 -26 -19 -26 2 0 13 -3 14 -12 5 -15 -15 -37 -15 -71 1 -31
14 -33 20 -12 37 8 7 15 21 15 31 0 10 5 21 10 24 13 8 13 25 -1 25 -6 0 -13
-9 -16 -20 -3 -11 -9 -20 -14 -20 -5 0 -9 -7 -9 -15 0 -18 -36 -38 -52 -29 -7
5 -3 10 11 16 19 7 21 11 11 23 -7 9 -11 16 -9 18 2 1 13 8 24 15 11 7 32 17
48 23 17 7 27 18 27 32 0 19 -1 20 -20 2 -37 -33 -20 -1 21 41 42 43 79 53
100 28z m913 -226 c21 -42 20 -71 -4 -93 -11 -10 -20 -24 -20 -32 0 -7 -11
-13 -26 -13 -20 0 -25 -4 -20 -16 8 -20 -31 -56 -53 -52 -12 3 -16 15 -15 48
1 25 -3 48 -9 51 -11 7 -1 29 13 29 5 0 12 -9 15 -20 3 -11 11 -20 17 -20 5 0
7 7 4 16 -3 9 4 25 19 40 14 14 25 34 25 46 0 17 2 18 15 8 13 -11 15 -8 15
14 0 34 5 33 24 -6z"/>
</g>
</svg>
